<svg fill="none" height="24" viewBox="0 0 24 24" width="24" xmlns="http://www.w3.org/2000/svg"><g stroke="#141414" stroke-linecap="round" stroke-linejoin="round" stroke-width="1.5"><path d="m5.75 19.2502h3.5c.55229 0 1-.4477 1-1v-12.5002c0-.55228-.44771-1-1-1h-3.5c-.55228 0-1 .44772-1 1v12.5002c0 .5523.44772 1 1 1z"/><path d="m14.75 10.2502h3.5c.5523 0 1-.44767 1-.99995v-3.50025c0-.55228-.4477-1-1-1h-3.5c-.5523 0-1 .44772-1 1v3.50025c0 .55228.4477.99995 1 .99995z"/><path d="m14.75 19.2502h3.5c.5523 0 1-.4477 1-1v-3.5002c0-.5523-.4477-1-1-1h-3.5c-.5523 0-1 .4477-1 1v3.5002c0 .5523.4477 1 1 1z"/></g></svg>